%TF.GenerationSoftware,KiCad,Pcbnew,9.0.2-9.0.2-0~ubuntu24.04.1*%
%TF.CreationDate,2025-06-12T16:41:04+02:00*%
%TF.ProjectId,Esp32shield,45737033-3273-4686-9965-6c642e6b6963,rev?*%
%TF.SameCoordinates,Original*%
%TF.FileFunction,Copper,L2,Bot*%
%TF.FilePolarity,Positive*%
%FSLAX46Y46*%
G04 Gerber Fmt 4.6, Leading zero omitted, Abs format (unit mm)*
G04 Created by KiCad (PCBNEW 9.0.2-9.0.2-0~ubuntu24.04.1) date 2025-06-12 16:41:04*
%MOMM*%
%LPD*%
G01*
G04 APERTURE LIST*
G04 Aperture macros list*
%AMRoundRect*
0 Rectangle with rounded corners*
0 $1 Rounding radius*
0 $2 $3 $4 $5 $6 $7 $8 $9 X,Y pos of 4 corners*
0 Add a 4 corners polygon primitive as box body*
4,1,4,$2,$3,$4,$5,$6,$7,$8,$9,$2,$3,0*
0 Add four circle primitives for the rounded corners*
1,1,$1+$1,$2,$3*
1,1,$1+$1,$4,$5*
1,1,$1+$1,$6,$7*
1,1,$1+$1,$8,$9*
0 Add four rect primitives between the rounded corners*
20,1,$1+$1,$2,$3,$4,$5,0*
20,1,$1+$1,$4,$5,$6,$7,0*
20,1,$1+$1,$6,$7,$8,$9,0*
20,1,$1+$1,$8,$9,$2,$3,0*%
G04 Aperture macros list end*
%TA.AperFunction,ComponentPad*%
%ADD10R,1.700000X1.700000*%
%TD*%
%TA.AperFunction,ComponentPad*%
%ADD11O,1.700000X1.700000*%
%TD*%
%TA.AperFunction,ComponentPad*%
%ADD12RoundRect,0.249999X-0.850001X0.850001X-0.850001X-0.850001X0.850001X-0.850001X0.850001X0.850001X0*%
%TD*%
%TA.AperFunction,ComponentPad*%
%ADD13C,2.200000*%
%TD*%
%TA.AperFunction,ComponentPad*%
%ADD14C,3.800000*%
%TD*%
%TA.AperFunction,ComponentPad*%
%ADD15C,1.600000*%
%TD*%
%TA.AperFunction,SMDPad,CuDef*%
%ADD16RoundRect,0.150000X0.825000X0.150000X-0.825000X0.150000X-0.825000X-0.150000X0.825000X-0.150000X0*%
%TD*%
%TA.AperFunction,Conductor*%
%ADD17C,0.200000*%
%TD*%
G04 APERTURE END LIST*
D10*
%TO.P,J1,1,Pin_1*%
%TO.N,+3.3V*%
X42500000Y-54500000D03*
D11*
%TO.P,J1,2,Pin_2*%
%TO.N,GND*%
X45040000Y-54500000D03*
%TO.P,J1,3,Pin_3*%
%TO.N,unconnected-(J1-Pin_3-Pad3)*%
X47580000Y-54500000D03*
%TO.P,J1,4,Pin_4*%
%TO.N,unconnected-(J1-Pin_4-Pad4)*%
X50120000Y-54500000D03*
%TO.P,J1,5,Pin_5*%
%TO.N,unconnected-(J1-Pin_5-Pad5)*%
X52660000Y-54500000D03*
%TO.P,J1,6,Pin_6*%
%TO.N,unconnected-(J1-Pin_6-Pad6)*%
X55200000Y-54500000D03*
%TO.P,J1,7,Pin_7*%
%TO.N,unconnected-(J1-Pin_7-Pad7)*%
X57740000Y-54500000D03*
%TO.P,J1,8,Pin_8*%
%TO.N,RXD*%
X60280000Y-54500000D03*
%TO.P,J1,9,Pin_9*%
%TO.N,TXD*%
X62820000Y-54500000D03*
%TO.P,J1,10,Pin_10*%
%TO.N,unconnected-(J1-Pin_10-Pad10)*%
X65360000Y-54500000D03*
%TO.P,J1,11,Pin_11*%
%TO.N,unconnected-(J1-Pin_11-Pad11)*%
X67900000Y-54500000D03*
%TO.P,J1,12,Pin_12*%
%TO.N,unconnected-(J1-Pin_12-Pad12)*%
X70440000Y-54500000D03*
%TO.P,J1,13,Pin_13*%
%TO.N,unconnected-(J1-Pin_13-Pad13)*%
X72980000Y-54500000D03*
%TO.P,J1,14,Pin_14*%
%TO.N,unconnected-(J1-Pin_14-Pad14)*%
X75520000Y-54500000D03*
%TO.P,J1,15,Pin_15*%
%TO.N,unconnected-(J1-Pin_15-Pad15)*%
X78060000Y-54500000D03*
%TO.P,J1,16,Pin_16*%
%TO.N,unconnected-(J1-Pin_16-Pad16)*%
X80600000Y-54500000D03*
%TD*%
D10*
%TO.P,J2,1,Pin_1*%
%TO.N,unconnected-(J2-Pin_1-Pad1)*%
X42500000Y-84500000D03*
D11*
%TO.P,J2,2,Pin_2*%
%TO.N,unconnected-(J2-Pin_2-Pad2)*%
X45040000Y-84500000D03*
%TO.P,J2,3,Pin_3*%
%TO.N,unconnected-(J2-Pin_3-Pad3)*%
X47580000Y-84500000D03*
%TO.P,J2,4,Pin_4*%
%TO.N,unconnected-(J2-Pin_4-Pad4)*%
X50120000Y-84500000D03*
%TO.P,J2,5,Pin_5*%
%TO.N,unconnected-(J2-Pin_5-Pad5)*%
X52660000Y-84500000D03*
%TO.P,J2,6,Pin_6*%
%TO.N,unconnected-(J2-Pin_6-Pad6)*%
X55200000Y-84500000D03*
%TO.P,J2,7,Pin_7*%
%TO.N,unconnected-(J2-Pin_7-Pad7)*%
X57740000Y-84500000D03*
%TO.P,J2,8,Pin_8*%
%TO.N,unconnected-(J2-Pin_8-Pad8)*%
X60280000Y-84500000D03*
%TO.P,J2,9,Pin_9*%
%TO.N,unconnected-(J2-Pin_9-Pad9)*%
X62820000Y-84500000D03*
%TO.P,J2,10,Pin_10*%
%TO.N,unconnected-(J2-Pin_10-Pad10)*%
X65360000Y-84500000D03*
%TO.P,J2,11,Pin_11*%
%TO.N,unconnected-(J2-Pin_11-Pad11)*%
X67900000Y-84500000D03*
%TO.P,J2,12,Pin_12*%
%TO.N,unconnected-(J2-Pin_12-Pad12)*%
X70440000Y-84500000D03*
%TO.P,J2,13,Pin_13*%
%TO.N,unconnected-(J2-Pin_13-Pad13)*%
X72980000Y-84500000D03*
%TO.P,J2,14,Pin_14*%
%TO.N,unconnected-(J2-Pin_14-Pad14)*%
X75520000Y-84500000D03*
%TO.P,J2,15,Pin_15*%
%TO.N,unconnected-(J2-Pin_15-Pad15)*%
X78060000Y-84500000D03*
%TO.P,J2,16,Pin_16*%
%TO.N,VIN*%
X80600000Y-84500000D03*
%TD*%
D12*
%TO.P,J9,1,Pin_1*%
%TO.N,GNDBAT*%
X44000000Y-32000000D03*
D13*
%TO.P,J9,2,Pin_2*%
%TO.N,+12V*%
X44000000Y-34540000D03*
%TO.P,J9,3,Pin_3*%
%TO.N,CAN_L*%
X44000000Y-37080000D03*
%TO.P,J9,4,Pin_4*%
%TO.N,CAN_H*%
X44000000Y-39620000D03*
%TD*%
D14*
%TO.P,J6,1,Pin_1*%
%TO.N,GND*%
X79500000Y-32000000D03*
%TD*%
%TO.P,J3,1,Pin_1*%
%TO.N,+12V*%
X60000000Y-46000000D03*
%TD*%
D15*
%TO.P,R1,1*%
%TO.N,Net-(U1-Rs)*%
X44000000Y-44000000D03*
%TO.P,R1,2*%
%TO.N,GND*%
X51620000Y-44000000D03*
%TD*%
D14*
%TO.P,J4,1,Pin_1*%
%TO.N,GNDBAT*%
X60000000Y-32000000D03*
%TD*%
%TO.P,J5,1,Pin_1*%
%TO.N,VIN*%
X79500000Y-46000000D03*
%TD*%
D16*
%TO.P,U1,1,D*%
%TO.N,TXD*%
X48475000Y-47595000D03*
%TO.P,U1,2,GND*%
%TO.N,GND*%
X48475000Y-48865000D03*
%TO.P,U1,3,VCC*%
%TO.N,+3.3V*%
X48475000Y-50135000D03*
%TO.P,U1,4,R*%
%TO.N,RXD*%
X48475000Y-51405000D03*
%TO.P,U1,5,Vref*%
%TO.N,unconnected-(U1-Vref-Pad5)*%
X43525000Y-51405000D03*
%TO.P,U1,6,CANL*%
%TO.N,CAN_L*%
X43525000Y-50135000D03*
%TO.P,U1,7,CANH*%
%TO.N,CAN_H*%
X43525000Y-48865000D03*
%TO.P,U1,8,Rs*%
%TO.N,Net-(U1-Rs)*%
X43525000Y-47595000D03*
%TD*%
D17*
%TO.N,+3.3V*%
X42500000Y-54546968D02*
X42500000Y-55000000D01*
X46765000Y-50235000D02*
X48875000Y-50235000D01*
X42500000Y-54500000D02*
X46765000Y-50235000D01*
%TO.N,TXD*%
X62820000Y-54500000D02*
X55915000Y-47595000D01*
X55915000Y-47595000D02*
X48475000Y-47595000D01*
%TO.N,RXD*%
X57185000Y-51405000D02*
X48475000Y-51405000D01*
X60280000Y-54500000D02*
X57185000Y-51405000D01*
%TO.N,VIN*%
X81500000Y-46000000D02*
X79500000Y-46000000D01*
X83000000Y-47500000D02*
X81500000Y-46000000D01*
X83000000Y-82100000D02*
X83000000Y-47500000D01*
X80600000Y-84500000D02*
X83000000Y-82100000D01*
%TO.N,GNDBAT*%
X43500000Y-32000000D02*
X60000000Y-32000000D01*
X43500000Y-32000000D02*
X43901000Y-32401000D01*
%TO.N,+12V*%
X43500000Y-34540000D02*
X48540000Y-34540000D01*
X48540000Y-34540000D02*
X60000000Y-46000000D01*
%TO.N,CAN_H*%
X42249000Y-48563999D02*
X42550001Y-48865000D01*
X42550001Y-48865000D02*
X43525000Y-48865000D01*
X42249000Y-41371000D02*
X42249000Y-48563999D01*
X44000000Y-39620000D02*
X42249000Y-41371000D01*
%TO.N,CAN_L*%
X44000000Y-37080000D02*
X40900000Y-40180000D01*
X42550001Y-50135000D02*
X43525000Y-50135000D01*
X40900000Y-48484999D02*
X42550001Y-50135000D01*
X40900000Y-40180000D02*
X40900000Y-48484999D01*
%TO.N,Net-(U1-Rs)*%
X44000000Y-47120000D02*
X44000000Y-44000000D01*
X43525000Y-47595000D02*
X44000000Y-47120000D01*
%TD*%
%TA.AperFunction,Conductor*%
%TO.N,GND*%
G36*
X84142539Y-28320185D02*
G01*
X84188294Y-28372989D01*
X84199500Y-28424500D01*
X84199500Y-86175500D01*
X84179815Y-86242539D01*
X84127011Y-86288294D01*
X84075500Y-86299500D01*
X40324500Y-86299500D01*
X40257461Y-86279815D01*
X40211706Y-86227011D01*
X40200500Y-86175500D01*
X40200500Y-83602135D01*
X41149500Y-83602135D01*
X41149500Y-85397870D01*
X41149501Y-85397876D01*
X41155908Y-85457483D01*
X41206202Y-85592328D01*
X41206206Y-85592335D01*
X41292452Y-85707544D01*
X41292455Y-85707547D01*
X41407664Y-85793793D01*
X41407671Y-85793797D01*
X41542517Y-85844091D01*
X41542516Y-85844091D01*
X41549444Y-85844835D01*
X41602127Y-85850500D01*
X43397872Y-85850499D01*
X43457483Y-85844091D01*
X43592331Y-85793796D01*
X43707546Y-85707546D01*
X43793796Y-85592331D01*
X43842810Y-85460916D01*
X43884681Y-85404984D01*
X43950145Y-85380566D01*
X44018418Y-85395417D01*
X44046673Y-85416569D01*
X44160213Y-85530109D01*
X44332179Y-85655048D01*
X44332181Y-85655049D01*
X44332184Y-85655051D01*
X44521588Y-85751557D01*
X44723757Y-85817246D01*
X44933713Y-85850500D01*
X44933714Y-85850500D01*
X45146286Y-85850500D01*
X45146287Y-85850500D01*
X45356243Y-85817246D01*
X45558412Y-85751557D01*
X45747816Y-85655051D01*
X45834138Y-85592335D01*
X45919786Y-85530109D01*
X45919788Y-85530106D01*
X45919792Y-85530104D01*
X46070104Y-85379792D01*
X46070106Y-85379788D01*
X46070109Y-85379786D01*
X46195048Y-85207820D01*
X46195047Y-85207820D01*
X46195051Y-85207816D01*
X46199514Y-85199054D01*
X46247488Y-85148259D01*
X46315308Y-85131463D01*
X46381444Y-85153999D01*
X46420486Y-85199056D01*
X46424951Y-85207820D01*
X46549890Y-85379786D01*
X46700213Y-85530109D01*
X46872179Y-85655048D01*
X46872181Y-85655049D01*
X46872184Y-85655051D01*
X47061588Y-85751557D01*
X47263757Y-85817246D01*
X47473713Y-85850500D01*
X47473714Y-85850500D01*
X47686286Y-85850500D01*
X47686287Y-85850500D01*
X47896243Y-85817246D01*
X48098412Y-85751557D01*
X48287816Y-85655051D01*
X48374138Y-85592335D01*
X48459786Y-85530109D01*
X48459788Y-85530106D01*
X48459792Y-85530104D01*
X48610104Y-85379792D01*
X48610106Y-85379788D01*
X48610109Y-85379786D01*
X48735048Y-85207820D01*
X48735047Y-85207820D01*
X48735051Y-85207816D01*
X48739514Y-85199054D01*
X48787488Y-85148259D01*
X48855308Y-85131463D01*
X48921444Y-85153999D01*
X48960486Y-85199056D01*
X48964951Y-85207820D01*
X49089890Y-85379786D01*
X49240213Y-85530109D01*
X49412179Y-85655048D01*
X49412181Y-85655049D01*
X49412184Y-85655051D01*
X49601588Y-85751557D01*
X49803757Y-85817246D01*
X50013713Y-85850500D01*
X50013714Y-85850500D01*
X50226286Y-85850500D01*
X50226287Y-85850500D01*
X50436243Y-85817246D01*
X50638412Y-85751557D01*
X50827816Y-85655051D01*
X50914138Y-85592335D01*
X50999786Y-85530109D01*
X50999788Y-85530106D01*
X50999792Y-85530104D01*
X51150104Y-85379792D01*
X51150106Y-85379788D01*
X51150109Y-85379786D01*
X51275048Y-85207820D01*
X51275047Y-85207820D01*
X51275051Y-85207816D01*
X51279514Y-85199054D01*
X51327488Y-85148259D01*
X51395308Y-85131463D01*
X51461444Y-85153999D01*
X51500486Y-85199056D01*
X51504951Y-85207820D01*
X51629890Y-85379786D01*
X51780213Y-85530109D01*
X51952179Y-85655048D01*
X51952181Y-85655049D01*
X51952184Y-85655051D01*
X52141588Y-85751557D01*
X52343757Y-85817246D01*
X52553713Y-85850500D01*
X52553714Y-85850500D01*
X52766286Y-85850500D01*
X52766287Y-85850500D01*
X52976243Y-85817246D01*
X53178412Y-85751557D01*
X53367816Y-85655051D01*
X53454138Y-85592335D01*
X53539786Y-85530109D01*
X53539788Y-85530106D01*
X53539792Y-85530104D01*
X53690104Y-85379792D01*
X53690106Y-85379788D01*
X53690109Y-85379786D01*
X53815048Y-85207820D01*
X53815047Y-85207820D01*
X53815051Y-85207816D01*
X53819514Y-85199054D01*
X53867488Y-85148259D01*
X53935308Y-85131463D01*
X54001444Y-85153999D01*
X54040486Y-85199056D01*
X54044951Y-85207820D01*
X54169890Y-85379786D01*
X54320213Y-85530109D01*
X54492179Y-85655048D01*
X54492181Y-85655049D01*
X54492184Y-85655051D01*
X54681588Y-85751557D01*
X54883757Y-85817246D01*
X55093713Y-85850500D01*
X55093714Y-85850500D01*
X55306286Y-85850500D01*
X55306287Y-85850500D01*
X55516243Y-85817246D01*
X55718412Y-85751557D01*
X55907816Y-85655051D01*
X55994138Y-85592335D01*
X56079786Y-85530109D01*
X56079788Y-85530106D01*
X56079792Y-85530104D01*
X56230104Y-85379792D01*
X56230106Y-85379788D01*
X56230109Y-85379786D01*
X56355048Y-85207820D01*
X56355047Y-85207820D01*
X56355051Y-85207816D01*
X56359514Y-85199054D01*
X56407488Y-85148259D01*
X56475308Y-85131463D01*
X56541444Y-85153999D01*
X56580486Y-85199056D01*
X56584951Y-85207820D01*
X56709890Y-85379786D01*
X56860213Y-85530109D01*
X57032179Y-85655048D01*
X57032181Y-85655049D01*
X57032184Y-85655051D01*
X57221588Y-85751557D01*
X57423757Y-85817246D01*
X57633713Y-85850500D01*
X57633714Y-85850500D01*
X57846286Y-85850500D01*
X57846287Y-85850500D01*
X58056243Y-85817246D01*
X58258412Y-85751557D01*
X58447816Y-85655051D01*
X58534138Y-85592335D01*
X58619786Y-85530109D01*
X58619788Y-85530106D01*
X58619792Y-85530104D01*
X58770104Y-85379792D01*
X58770106Y-85379788D01*
X58770109Y-85379786D01*
X58895048Y-85207820D01*
X58895047Y-85207820D01*
X58895051Y-85207816D01*
X58899514Y-85199054D01*
X58947488Y-85148259D01*
X59015308Y-85131463D01*
X59081444Y-85153999D01*
X59120486Y-85199056D01*
X59124951Y-85207820D01*
X59249890Y-85379786D01*
X59400213Y-85530109D01*
X59572179Y-85655048D01*
X59572181Y-85655049D01*
X59572184Y-85655051D01*
X59761588Y-85751557D01*
X59963757Y-85817246D01*
X60173713Y-85850500D01*
X60173714Y-85850500D01*
X60386286Y-85850500D01*
X60386287Y-85850500D01*
X60596243Y-85817246D01*
X60798412Y-85751557D01*
X60987816Y-85655051D01*
X61074138Y-85592335D01*
X61159786Y-85530109D01*
X61159788Y-85530106D01*
X61159792Y-85530104D01*
X61310104Y-85379792D01*
X61310106Y-85379788D01*
X61310109Y-85379786D01*
X61435048Y-85207820D01*
X61435047Y-85207820D01*
X61435051Y-85207816D01*
X61439514Y-85199054D01*
X61487488Y-85148259D01*
X61555308Y-85131463D01*
X61621444Y-85153999D01*
X61660486Y-85199056D01*
X61664951Y-85207820D01*
X61789890Y-85379786D01*
X61940213Y-85530109D01*
X62112179Y-85655048D01*
X62112181Y-85655049D01*
X62112184Y-85655051D01*
X62301588Y-85751557D01*
X62503757Y-85817246D01*
X62713713Y-85850500D01*
X62713714Y-85850500D01*
X62926286Y-85850500D01*
X62926287Y-85850500D01*
X63136243Y-85817246D01*
X63338412Y-85751557D01*
X63527816Y-85655051D01*
X63614138Y-85592335D01*
X63699786Y-85530109D01*
X63699788Y-85530106D01*
X63699792Y-85530104D01*
X63850104Y-85379792D01*
X63850106Y-85379788D01*
X63850109Y-85379786D01*
X63975048Y-85207820D01*
X63975047Y-85207820D01*
X63975051Y-85207816D01*
X63979514Y-85199054D01*
X64027488Y-85148259D01*
X64095308Y-85131463D01*
X64161444Y-85153999D01*
X64200486Y-85199056D01*
X64204951Y-85207820D01*
X64329890Y-85379786D01*
X64480213Y-85530109D01*
X64652179Y-85655048D01*
X64652181Y-85655049D01*
X64652184Y-85655051D01*
X64841588Y-85751557D01*
X65043757Y-85817246D01*
X65253713Y-85850500D01*
X65253714Y-85850500D01*
X65466286Y-85850500D01*
X65466287Y-85850500D01*
X65676243Y-85817246D01*
X65878412Y-85751557D01*
X66067816Y-85655051D01*
X66154138Y-85592335D01*
X66239786Y-85530109D01*
X66239788Y-85530106D01*
X66239792Y-85530104D01*
X66390104Y-85379792D01*
X66390106Y-85379788D01*
X66390109Y-85379786D01*
X66515048Y-85207820D01*
X66515047Y-85207820D01*
X66515051Y-85207816D01*
X66519514Y-85199054D01*
X66567488Y-85148259D01*
X66635308Y-85131463D01*
X66701444Y-85153999D01*
X66740486Y-85199056D01*
X66744951Y-85207820D01*
X66869890Y-85379786D01*
X67020213Y-85530109D01*
X67192179Y-85655048D01*
X67192181Y-85655049D01*
X67192184Y-85655051D01*
X67381588Y-85751557D01*
X67583757Y-85817246D01*
X67793713Y-85850500D01*
X67793714Y-85850500D01*
X68006286Y-85850500D01*
X68006287Y-85850500D01*
X68216243Y-85817246D01*
X68418412Y-85751557D01*
X68607816Y-85655051D01*
X68694138Y-85592335D01*
X68779786Y-85530109D01*
X68779788Y-85530106D01*
X68779792Y-85530104D01*
X68930104Y-85379792D01*
X68930106Y-85379788D01*
X68930109Y-85379786D01*
X69055048Y-85207820D01*
X69055047Y-85207820D01*
X69055051Y-85207816D01*
X69059514Y-85199054D01*
X69107488Y-85148259D01*
X69175308Y-85131463D01*
X69241444Y-85153999D01*
X69280486Y-85199056D01*
X69284951Y-85207820D01*
X69409890Y-85379786D01*
X69560213Y-85530109D01*
X69732179Y-85655048D01*
X69732181Y-85655049D01*
X69732184Y-85655051D01*
X69921588Y-85751557D01*
X70123757Y-85817246D01*
X70333713Y-85850500D01*
X70333714Y-85850500D01*
X70546286Y-85850500D01*
X70546287Y-85850500D01*
X70756243Y-85817246D01*
X70958412Y-85751557D01*
X71147816Y-85655051D01*
X71234138Y-85592335D01*
X71319786Y-85530109D01*
X71319788Y-85530106D01*
X71319792Y-85530104D01*
X71470104Y-85379792D01*
X71470106Y-85379788D01*
X71470109Y-85379786D01*
X71595048Y-85207820D01*
X71595047Y-85207820D01*
X71595051Y-85207816D01*
X71599514Y-85199054D01*
X71647488Y-85148259D01*
X71715308Y-85131463D01*
X71781444Y-85153999D01*
X71820486Y-85199056D01*
X71824951Y-85207820D01*
X71949890Y-85379786D01*
X72100213Y-85530109D01*
X72272179Y-85655048D01*
X72272181Y-85655049D01*
X72272184Y-85655051D01*
X72461588Y-85751557D01*
X72663757Y-85817246D01*
X72873713Y-85850500D01*
X72873714Y-85850500D01*
X73086286Y-85850500D01*
X73086287Y-85850500D01*
X73296243Y-85817246D01*
X73498412Y-85751557D01*
X73687816Y-85655051D01*
X73774138Y-85592335D01*
X73859786Y-85530109D01*
X73859788Y-85530106D01*
X73859792Y-85530104D01*
X74010104Y-85379792D01*
X74010106Y-85379788D01*
X74010109Y-85379786D01*
X74135048Y-85207820D01*
X74135047Y-85207820D01*
X74135051Y-85207816D01*
X74139514Y-85199054D01*
X74187488Y-85148259D01*
X74255308Y-85131463D01*
X74321444Y-85153999D01*
X74360486Y-85199056D01*
X74364951Y-85207820D01*
X74489890Y-85379786D01*
X74640213Y-85530109D01*
X74812179Y-85655048D01*
X74812181Y-85655049D01*
X74812184Y-85655051D01*
X75001588Y-85751557D01*
X75203757Y-85817246D01*
X75413713Y-85850500D01*
X75413714Y-85850500D01*
X75626286Y-85850500D01*
X75626287Y-85850500D01*
X75836243Y-85817246D01*
X76038412Y-85751557D01*
X76227816Y-85655051D01*
X76314138Y-85592335D01*
X76399786Y-85530109D01*
X76399788Y-85530106D01*
X76399792Y-85530104D01*
X76550104Y-85379792D01*
X76550106Y-85379788D01*
X76550109Y-85379786D01*
X76675048Y-85207820D01*
X76675047Y-85207820D01*
X76675051Y-85207816D01*
X76679514Y-85199054D01*
X76727488Y-85148259D01*
X76795308Y-85131463D01*
X76861444Y-85153999D01*
X76900486Y-85199056D01*
X76904951Y-85207820D01*
X77029890Y-85379786D01*
X77180213Y-85530109D01*
X77352179Y-85655048D01*
X77352181Y-85655049D01*
X77352184Y-85655051D01*
X77541588Y-85751557D01*
X77743757Y-85817246D01*
X77953713Y-85850500D01*
X77953714Y-85850500D01*
X78166286Y-85850500D01*
X78166287Y-85850500D01*
X78376243Y-85817246D01*
X78578412Y-85751557D01*
X78767816Y-85655051D01*
X78854138Y-85592335D01*
X78939786Y-85530109D01*
X78939788Y-85530106D01*
X78939792Y-85530104D01*
X79090104Y-85379792D01*
X79090106Y-85379788D01*
X79090109Y-85379786D01*
X79215048Y-85207820D01*
X79215047Y-85207820D01*
X79215051Y-85207816D01*
X79219514Y-85199054D01*
X79267488Y-85148259D01*
X79335308Y-85131463D01*
X79401444Y-85153999D01*
X79440486Y-85199056D01*
X79444951Y-85207820D01*
X79569890Y-85379786D01*
X79720213Y-85530109D01*
X79892179Y-85655048D01*
X79892181Y-85655049D01*
X79892184Y-85655051D01*
X80081588Y-85751557D01*
X80283757Y-85817246D01*
X80493713Y-85850500D01*
X80493714Y-85850500D01*
X80706286Y-85850500D01*
X80706287Y-85850500D01*
X80916243Y-85817246D01*
X81118412Y-85751557D01*
X81307816Y-85655051D01*
X81394138Y-85592335D01*
X81479786Y-85530109D01*
X81479788Y-85530106D01*
X81479792Y-85530104D01*
X81630104Y-85379792D01*
X81630106Y-85379788D01*
X81630109Y-85379786D01*
X81755048Y-85207820D01*
X81755047Y-85207820D01*
X81755051Y-85207816D01*
X81851557Y-85018412D01*
X81917246Y-84816243D01*
X81950500Y-84606287D01*
X81950500Y-84393713D01*
X81917246Y-84183757D01*
X81903506Y-84141473D01*
X81901512Y-84071635D01*
X81933755Y-84015478D01*
X83480520Y-82468716D01*
X83559577Y-82331784D01*
X83600501Y-82179057D01*
X83600501Y-82020942D01*
X83600501Y-82013347D01*
X83600500Y-82013329D01*
X83600500Y-47420945D01*
X83600500Y-47420943D01*
X83559577Y-47268216D01*
X83539450Y-47233355D01*
X83480524Y-47131290D01*
X83480521Y-47131286D01*
X83480520Y-47131284D01*
X83368716Y-47019480D01*
X83368715Y-47019479D01*
X83364385Y-47015149D01*
X83364374Y-47015139D01*
X81987587Y-45638352D01*
X81980520Y-45631285D01*
X81980520Y-45631284D01*
X81873037Y-45523801D01*
X81839828Y-45463712D01*
X81810316Y-45334409D01*
X81810312Y-45334397D01*
X81747053Y-45153614D01*
X81721267Y-45079921D01*
X81604284Y-44837003D01*
X81460838Y-44608711D01*
X81292734Y-44397915D01*
X81102085Y-44207266D01*
X80891289Y-44039162D01*
X80719527Y-43931236D01*
X80662994Y-43895714D01*
X80420082Y-43778734D01*
X80165602Y-43689687D01*
X80165594Y-43689684D01*
X79968446Y-43644687D01*
X79902732Y-43629688D01*
X79902728Y-43629687D01*
X79902719Y-43629686D01*
X79634813Y-43599500D01*
X79634809Y-43599500D01*
X79365191Y-43599500D01*
X79365186Y-43599500D01*
X79097280Y-43629686D01*
X79097268Y-43629688D01*
X78834405Y-43689684D01*
X78834397Y-43689687D01*
X78579917Y-43778734D01*
X78337005Y-43895714D01*
X78108712Y-44039161D01*
X77897915Y-44207265D01*
X77707265Y-44397915D01*
X77539161Y-44608712D01*
X77395714Y-44837005D01*
X77278734Y-45079917D01*
X77189687Y-45334397D01*
X77189684Y-45334405D01*
X77129688Y-45597268D01*
X77129686Y-45597280D01*
X77099500Y-45865186D01*
X77099500Y-46134813D01*
X77129686Y-46402719D01*
X77129688Y-46402731D01*
X77189684Y-46665594D01*
X77189687Y-46665602D01*
X77278734Y-46920082D01*
X77395714Y-47162994D01*
X77409291Y-47184602D01*
X77539162Y-47391289D01*
X77707266Y-47602085D01*
X77897915Y-47792734D01*
X78108711Y-47960838D01*
X78337003Y-48104284D01*
X78579921Y-48221267D01*
X78680386Y-48256421D01*
X78834397Y-48310312D01*
X78834405Y-48310315D01*
X78834408Y-48310315D01*
X78834409Y-48310316D01*
X79097268Y-48370312D01*
X79365187Y-48400499D01*
X79365188Y-48400500D01*
X79365191Y-48400500D01*
X79634812Y-48400500D01*
X79634812Y-48400499D01*
X79902732Y-48370312D01*
X80165591Y-48310316D01*
X80420079Y-48221267D01*
X80662997Y-48104284D01*
X80891289Y-47960838D01*
X81102085Y-47792734D01*
X81292734Y-47602085D01*
X81460838Y-47391289D01*
X81602393Y-47166006D01*
X81654724Y-47119718D01*
X81723778Y-47109069D01*
X81787626Y-47137444D01*
X81795065Y-47144300D01*
X82363181Y-47712416D01*
X82396666Y-47773739D01*
X82399500Y-47800097D01*
X82399500Y-81799902D01*
X82379815Y-81866941D01*
X82363181Y-81887583D01*
X81084522Y-83166241D01*
X81023199Y-83199726D01*
X80958523Y-83196491D01*
X80916245Y-83182754D01*
X80776272Y-83160584D01*
X80706287Y-83149500D01*
X80493713Y-83149500D01*
X80445042Y-83157208D01*
X80283760Y-83182753D01*
X80081585Y-83248444D01*
X79892179Y-83344951D01*
X79720213Y-83469890D01*
X79569890Y-83620213D01*
X79444949Y-83792182D01*
X79440484Y-83800946D01*
X79392509Y-83851742D01*
X79324688Y-83868536D01*
X79258553Y-83845998D01*
X79219516Y-83800946D01*
X79215050Y-83792182D01*
X79090109Y-83620213D01*
X78939786Y-83469890D01*
X78767820Y-83344951D01*
X78578414Y-83248444D01*
X78578413Y-83248443D01*
X78578412Y-83248443D01*
X78376243Y-83182754D01*
X78376241Y-83182753D01*
X78376240Y-83182753D01*
X78214957Y-83157208D01*
X78166287Y-83149500D01*
X77953713Y-83149500D01*
X77905042Y-83157208D01*
X77743760Y-83182753D01*
X77541585Y-83248444D01*
X77352179Y-83344951D01*
X77180213Y-83469890D01*
X77029890Y-83620213D01*
X76904949Y-83792182D01*
X76900484Y-83800946D01*
X76852509Y-83851742D01*
X76784688Y-83868536D01*
X76718553Y-83845998D01*
X76679516Y-83800946D01*
X76675050Y-83792182D01*
X76550109Y-83620213D01*
X76399786Y-83469890D01*
X76227820Y-83344951D01*
X76038414Y-83248444D01*
X76038413Y-83248443D01*
X76038412Y-83248443D01*
X75836243Y-83182754D01*
X75836241Y-83182753D01*
X75836240Y-83182753D01*
X75674957Y-83157208D01*
X75626287Y-83149500D01*
X75413713Y-83149500D01*
X75365042Y-83157208D01*
X75203760Y-83182753D01*
X75001585Y-83248444D01*
X74812179Y-83344951D01*
X74640213Y-83469890D01*
X74489890Y-83620213D01*
X74364949Y-83792182D01*
X74360484Y-83800946D01*
X74312509Y-83851742D01*
X74244688Y-83868536D01*
X74178553Y-83845998D01*
X74139516Y-83800946D01*
X74135050Y-83792182D01*
X74010109Y-83620213D01*
X73859786Y-83469890D01*
X73687820Y-83344951D01*
X73498414Y-83248444D01*
X73498413Y-83248443D01*
X73498412Y-83248443D01*
X73296243Y-83182754D01*
X73296241Y-83182753D01*
X73296240Y-83182753D01*
X73134957Y-83157208D01*
X73086287Y-83149500D01*
X72873713Y-83149500D01*
X72825042Y-83157208D01*
X72663760Y-83182753D01*
X72461585Y-83248444D01*
X72272179Y-83344951D01*
X72100213Y-83469890D01*
X71949890Y-83620213D01*
X71824949Y-83792182D01*
X71820484Y-83800946D01*
X71772509Y-83851742D01*
X71704688Y-83868536D01*
X71638553Y-83845998D01*
X71599516Y-83800946D01*
X71595050Y-83792182D01*
X71470109Y-83620213D01*
X71319786Y-83469890D01*
X71147820Y-83344951D01*
X70958414Y-83248444D01*
X70958413Y-83248443D01*
X70958412Y-83248443D01*
X70756243Y-83182754D01*
X70756241Y-83182753D01*
X70756240Y-83182753D01*
X70594957Y-83157208D01*
X70546287Y-83149500D01*
X70333713Y-83149500D01*
X70285042Y-83157208D01*
X70123760Y-83182753D01*
X69921585Y-83248444D01*
X69732179Y-83344951D01*
X69560213Y-83469890D01*
X69409890Y-83620213D01*
X69284949Y-83792182D01*
X69280484Y-83800946D01*
X69232509Y-83851742D01*
X69164688Y-83868536D01*
X69098553Y-83845998D01*
X69059516Y-83800946D01*
X69055050Y-83792182D01*
X68930109Y-83620213D01*
X68779786Y-83469890D01*
X68607820Y-83344951D01*
X68418414Y-83248444D01*
X68418413Y-83248443D01*
X68418412Y-83248443D01*
X68216243Y-83182754D01*
X68216241Y-83182753D01*
X68216240Y-83182753D01*
X68054957Y-83157208D01*
X68006287Y-83149500D01*
X67793713Y-83149500D01*
X67745042Y-83157208D01*
X67583760Y-83182753D01*
X67381585Y-83248444D01*
X67192179Y-83344951D01*
X67020213Y-83469890D01*
X66869890Y-83620213D01*
X66744949Y-83792182D01*
X66740484Y-83800946D01*
X66692509Y-83851742D01*
X66624688Y-83868536D01*
X66558553Y-83845998D01*
X66519516Y-83800946D01*
X66515050Y-83792182D01*
X66390109Y-83620213D01*
X66239786Y-83469890D01*
X66067820Y-83344951D01*
X65878414Y-83248444D01*
X65878413Y-83248443D01*
X65878412Y-83248443D01*
X65676243Y-83182754D01*
X65676241Y-83182753D01*
X65676240Y-83182753D01*
X65514957Y-83157208D01*
X65466287Y-83149500D01*
X65253713Y-83149500D01*
X65205042Y-83157208D01*
X65043760Y-83182753D01*
X64841585Y-83248444D01*
X64652179Y-83344951D01*
X64480213Y-83469890D01*
X64329890Y-83620213D01*
X64204949Y-83792182D01*
X64200484Y-83800946D01*
X64152509Y-83851742D01*
X64084688Y-83868536D01*
X64018553Y-83845998D01*
X63979516Y-83800946D01*
X63975050Y-83792182D01*
X63850109Y-83620213D01*
X63699786Y-83469890D01*
X63527820Y-83344951D01*
X63338414Y-83248444D01*
X63338413Y-83248443D01*
X63338412Y-83248443D01*
X63136243Y-83182754D01*
X63136241Y-83182753D01*
X63136240Y-83182753D01*
X62974957Y-83157208D01*
X62926287Y-83149500D01*
X62713713Y-83149500D01*
X62665042Y-83157208D01*
X62503760Y-83182753D01*
X62301585Y-83248444D01*
X62112179Y-83344951D01*
X61940213Y-83469890D01*
X61789890Y-83620213D01*
X61664949Y-83792182D01*
X61660484Y-83800946D01*
X61612509Y-83851742D01*
X61544688Y-83868536D01*
X61478553Y-83845998D01*
X61439516Y-83800946D01*
X61435050Y-83792182D01*
X61310109Y-83620213D01*
X61159786Y-83469890D01*
X60987820Y-83344951D01*
X60798414Y-83248444D01*
X60798413Y-83248443D01*
X60798412Y-83248443D01*
X60596243Y-83182754D01*
X60596241Y-83182753D01*
X60596240Y-83182753D01*
X60434957Y-83157208D01*
X60386287Y-83149500D01*
X60173713Y-83149500D01*
X60125042Y-83157208D01*
X59963760Y-83182753D01*
X59761585Y-83248444D01*
X59572179Y-83344951D01*
X59400213Y-83469890D01*
X59249890Y-83620213D01*
X59124949Y-83792182D01*
X59120484Y-83800946D01*
X59072509Y-83851742D01*
X59004688Y-83868536D01*
X58938553Y-83845998D01*
X58899516Y-83800946D01*
X58895050Y-83792182D01*
X58770109Y-83620213D01*
X58619786Y-83469890D01*
X58447820Y-83344951D01*
X58258414Y-83248444D01*
X58258413Y-83248443D01*
X58258412Y-83248443D01*
X58056243Y-83182754D01*
X58056241Y-83182753D01*
X58056240Y-83182753D01*
X57894957Y-83157208D01*
X57846287Y-83149500D01*
X57633713Y-83149500D01*
X57585042Y-83157208D01*
X57423760Y-83182753D01*
X57221585Y-83248444D01*
X57032179Y-83344951D01*
X56860213Y-83469890D01*
X56709890Y-83620213D01*
X56584949Y-83792182D01*
X56580484Y-83800946D01*
X56532509Y-83851742D01*
X56464688Y-83868536D01*
X56398553Y-83845998D01*
X56359516Y-83800946D01*
X56355050Y-83792182D01*
X56230109Y-83620213D01*
X56079786Y-83469890D01*
X55907820Y-83344951D01*
X55718414Y-83248444D01*
X55718413Y-83248443D01*
X55718412Y-83248443D01*
X55516243Y-83182754D01*
X55516241Y-83182753D01*
X55516240Y-83182753D01*
X55354957Y-83157208D01*
X55306287Y-83149500D01*
X55093713Y-83149500D01*
X55045042Y-83157208D01*
X54883760Y-83182753D01*
X54681585Y-83248444D01*
X54492179Y-83344951D01*
X54320213Y-83469890D01*
X54169890Y-83620213D01*
X54044949Y-83792182D01*
X54040484Y-83800946D01*
X53992509Y-83851742D01*
X53924688Y-83868536D01*
X53858553Y-83845998D01*
X53819516Y-83800946D01*
X53815050Y-83792182D01*
X53690109Y-83620213D01*
X53539786Y-83469890D01*
X53367820Y-83344951D01*
X53178414Y-83248444D01*
X53178413Y-83248443D01*
X53178412Y-83248443D01*
X52976243Y-83182754D01*
X52976241Y-83182753D01*
X52976240Y-83182753D01*
X52814957Y-83157208D01*
X52766287Y-83149500D01*
X52553713Y-83149500D01*
X52505042Y-83157208D01*
X52343760Y-83182753D01*
X52141585Y-83248444D01*
X51952179Y-83344951D01*
X51780213Y-83469890D01*
X51629890Y-83620213D01*
X51504949Y-83792182D01*
X51500484Y-83800946D01*
X51452509Y-83851742D01*
X51384688Y-83868536D01*
X51318553Y-83845998D01*
X51279516Y-83800946D01*
X51275050Y-83792182D01*
X51150109Y-83620213D01*
X50999786Y-83469890D01*
X50827820Y-83344951D01*
X50638414Y-83248444D01*
X50638413Y-83248443D01*
X50638412Y-83248443D01*
X50436243Y-83182754D01*
X50436241Y-83182753D01*
X50436240Y-83182753D01*
X50274957Y-83157208D01*
X50226287Y-83149500D01*
X50013713Y-83149500D01*
X49965042Y-83157208D01*
X49803760Y-83182753D01*
X49601585Y-83248444D01*
X49412179Y-83344951D01*
X49240213Y-83469890D01*
X49089890Y-83620213D01*
X48964949Y-83792182D01*
X48960484Y-83800946D01*
X48912509Y-83851742D01*
X48844688Y-83868536D01*
X48778553Y-83845998D01*
X48739516Y-83800946D01*
X48735050Y-83792182D01*
X48610109Y-83620213D01*
X48459786Y-83469890D01*
X48287820Y-83344951D01*
X48098414Y-83248444D01*
X48098413Y-83248443D01*
X48098412Y-83248443D01*
X47896243Y-83182754D01*
X47896241Y-83182753D01*
X47896240Y-83182753D01*
X47734957Y-83157208D01*
X47686287Y-83149500D01*
X47473713Y-83149500D01*
X47425042Y-83157208D01*
X47263760Y-83182753D01*
X47061585Y-83248444D01*
X46872179Y-83344951D01*
X46700213Y-83469890D01*
X46549890Y-83620213D01*
X46424949Y-83792182D01*
X46420484Y-83800946D01*
X46372509Y-83851742D01*
X46304688Y-83868536D01*
X46238553Y-83845998D01*
X46199516Y-83800946D01*
X46195050Y-83792182D01*
X46070109Y-83620213D01*
X45919786Y-83469890D01*
X45747820Y-83344951D01*
X45558414Y-83248444D01*
X45558413Y-83248443D01*
X45558412Y-83248443D01*
X45356243Y-83182754D01*
X45356241Y-83182753D01*
X45356240Y-83182753D01*
X45194957Y-83157208D01*
X45146287Y-83149500D01*
X44933713Y-83149500D01*
X44885042Y-83157208D01*
X44723760Y-83182753D01*
X44521585Y-83248444D01*
X44332179Y-83344951D01*
X44160215Y-83469889D01*
X44046673Y-83583431D01*
X43985350Y-83616915D01*
X43915658Y-83611931D01*
X43859725Y-83570059D01*
X43842810Y-83539082D01*
X43793797Y-83407671D01*
X43793793Y-83407664D01*
X43707547Y-83292455D01*
X43707544Y-83292452D01*
X43592335Y-83206206D01*
X43592328Y-83206202D01*
X43457482Y-83155908D01*
X43457483Y-83155908D01*
X43397883Y-83149501D01*
X43397881Y-83149500D01*
X43397873Y-83149500D01*
X43397864Y-83149500D01*
X41602129Y-83149500D01*
X41602123Y-83149501D01*
X41542516Y-83155908D01*
X41407671Y-83206202D01*
X41407664Y-83206206D01*
X41292455Y-83292452D01*
X41292452Y-83292455D01*
X41206206Y-83407664D01*
X41206202Y-83407671D01*
X41155908Y-83542517D01*
X41149501Y-83602116D01*
X41149500Y-83602135D01*
X40200500Y-83602135D01*
X40200500Y-48933626D01*
X40206770Y-48912272D01*
X40208399Y-48890077D01*
X40216422Y-48879399D01*
X40220185Y-48866587D01*
X40237002Y-48852014D01*
X40250374Y-48834221D01*
X40262897Y-48829576D01*
X40272989Y-48820832D01*
X40295017Y-48817664D01*
X40315884Y-48809926D01*
X40328927Y-48812788D01*
X40342147Y-48810888D01*
X40362390Y-48820133D01*
X40384129Y-48824904D01*
X40396982Y-48835930D01*
X40405703Y-48839913D01*
X40412344Y-48846108D01*
X40418869Y-48852658D01*
X40419480Y-48853715D01*
X40531284Y-48965519D01*
X40531286Y-48965520D01*
X40538518Y-48972752D01*
X42071683Y-50505918D01*
X42094046Y-50538824D01*
X42094285Y-50538684D01*
X42096522Y-50542467D01*
X42097804Y-50544353D01*
X42098257Y-50545401D01*
X42181916Y-50686861D01*
X42186702Y-50693031D01*
X42184256Y-50694927D01*
X42210857Y-50743642D01*
X42205873Y-50813334D01*
X42185069Y-50845703D01*
X42186702Y-50846969D01*
X42181919Y-50853135D01*
X42098255Y-50994603D01*
X42098254Y-50994606D01*
X42052402Y-51152426D01*
X42052401Y-51152432D01*
X42049500Y-51189298D01*
X42049500Y-51620701D01*
X42052401Y-51657567D01*
X42052402Y-51657573D01*
X42098254Y-51815393D01*
X42098255Y-51815396D01*
X42181917Y-51956862D01*
X42181923Y-51956870D01*
X42298129Y-52073076D01*
X42298133Y-52073079D01*
X42298135Y-52073081D01*
X42439602Y-52156744D01*
X42481224Y-52168836D01*
X42597426Y-52202597D01*
X42597429Y-52202597D01*
X42597431Y-52202598D01*
X42634306Y-52205500D01*
X43645903Y-52205500D01*
X43712942Y-52225185D01*
X43758697Y-52277989D01*
X43768641Y-52347147D01*
X43739616Y-52410703D01*
X43733584Y-52417181D01*
X43037583Y-53113181D01*
X42976260Y-53146666D01*
X42949902Y-53149500D01*
X41602129Y-53149500D01*
X41602123Y-53149501D01*
X41542516Y-53155908D01*
X41407671Y-53206202D01*
X41407664Y-53206206D01*
X41292455Y-53292452D01*
X41292452Y-53292455D01*
X41206206Y-53407664D01*
X41206202Y-53407671D01*
X41155908Y-53542517D01*
X41149501Y-53602116D01*
X41149500Y-53602135D01*
X41149500Y-55397870D01*
X41149501Y-55397876D01*
X41155908Y-55457483D01*
X41206202Y-55592328D01*
X41206206Y-55592335D01*
X41292452Y-55707544D01*
X41292455Y-55707547D01*
X41407664Y-55793793D01*
X41407671Y-55793797D01*
X41542517Y-55844091D01*
X41542516Y-55844091D01*
X41549444Y-55844835D01*
X41602127Y-55850500D01*
X43397872Y-55850499D01*
X43457483Y-55844091D01*
X43592331Y-55793796D01*
X43707546Y-55707546D01*
X43793796Y-55592331D01*
X43844091Y-55457483D01*
X43850500Y-55397873D01*
X43850499Y-54050095D01*
X43870184Y-53983057D01*
X43886813Y-53962420D01*
X46790839Y-51058395D01*
X46852160Y-51024912D01*
X46921852Y-51029896D01*
X46977785Y-51071768D01*
X47002202Y-51137232D01*
X47002136Y-51155805D01*
X46999500Y-51189295D01*
X46999500Y-51620701D01*
X47002401Y-51657567D01*
X47002402Y-51657573D01*
X47048254Y-51815393D01*
X47048255Y-51815396D01*
X47131917Y-51956862D01*
X47131923Y-51956870D01*
X47248129Y-52073076D01*
X47248133Y-52073079D01*
X47248135Y-52073081D01*
X47389602Y-52156744D01*
X47431224Y-52168836D01*
X47547426Y-52202597D01*
X47547429Y-52202597D01*
X47547431Y-52202598D01*
X47584306Y-52205500D01*
X47584314Y-52205500D01*
X49365686Y-52205500D01*
X49365694Y-52205500D01*
X49402569Y-52202598D01*
X49402571Y-52202597D01*
X49402573Y-52202597D01*
X49444191Y-52190505D01*
X49560398Y-52156744D01*
X49701865Y-52073081D01*
X49733126Y-52041820D01*
X49794448Y-52008334D01*
X49820808Y-52005500D01*
X56884903Y-52005500D01*
X56951942Y-52025185D01*
X56972584Y-52041819D01*
X57868584Y-52937819D01*
X57902069Y-52999142D01*
X57897085Y-53068834D01*
X57855213Y-53124767D01*
X57789749Y-53149184D01*
X57780903Y-53149500D01*
X57633713Y-53149500D01*
X57585042Y-53157208D01*
X57423760Y-53182753D01*
X57221585Y-53248444D01*
X57032179Y-53344951D01*
X56860213Y-53469890D01*
X56709890Y-53620213D01*
X56584949Y-53792182D01*
X56580484Y-53800946D01*
X56532509Y-53851742D01*
X56464688Y-53868536D01*
X56398553Y-53845998D01*
X56359516Y-53800946D01*
X56355050Y-53792182D01*
X56230109Y-53620213D01*
X56079786Y-53469890D01*
X55907820Y-53344951D01*
X55718414Y-53248444D01*
X55718413Y-53248443D01*
X55718412Y-53248443D01*
X55516243Y-53182754D01*
X55516241Y-53182753D01*
X55516240Y-53182753D01*
X55354957Y-53157208D01*
X55306287Y-53149500D01*
X55093713Y-53149500D01*
X55045042Y-53157208D01*
X54883760Y-53182753D01*
X54681585Y-53248444D01*
X54492179Y-53344951D01*
X54320213Y-53469890D01*
X54169890Y-53620213D01*
X54044949Y-53792182D01*
X54040484Y-53800946D01*
X53992509Y-53851742D01*
X53924688Y-53868536D01*
X53858553Y-53845998D01*
X53819516Y-53800946D01*
X53815050Y-53792182D01*
X53690109Y-53620213D01*
X53539786Y-53469890D01*
X53367820Y-53344951D01*
X53178414Y-53248444D01*
X53178413Y-53248443D01*
X53178412Y-53248443D01*
X52976243Y-53182754D01*
X52976241Y-53182753D01*
X52976240Y-53182753D01*
X52814957Y-53157208D01*
X52766287Y-53149500D01*
X52553713Y-53149500D01*
X52505042Y-53157208D01*
X52343760Y-53182753D01*
X52141585Y-53248444D01*
X51952179Y-53344951D01*
X51780213Y-53469890D01*
X51629890Y-53620213D01*
X51504949Y-53792182D01*
X51500484Y-53800946D01*
X51452509Y-53851742D01*
X51384688Y-53868536D01*
X51318553Y-53845998D01*
X51279516Y-53800946D01*
X51275050Y-53792182D01*
X51150109Y-53620213D01*
X50999786Y-53469890D01*
X50827820Y-53344951D01*
X50638414Y-53248444D01*
X50638413Y-53248443D01*
X50638412Y-53248443D01*
X50436243Y-53182754D01*
X50436241Y-53182753D01*
X50436240Y-53182753D01*
X50274957Y-53157208D01*
X50226287Y-53149500D01*
X50013713Y-53149500D01*
X49965042Y-53157208D01*
X49803760Y-53182753D01*
X49601585Y-53248444D01*
X49412179Y-53344951D01*
X49240213Y-53469890D01*
X49089890Y-53620213D01*
X48964949Y-53792182D01*
X48960484Y-53800946D01*
X48912509Y-53851742D01*
X48844688Y-53868536D01*
X48778553Y-53845998D01*
X48739516Y-53800946D01*
X48735050Y-53792182D01*
X48610109Y-53620213D01*
X48459786Y-53469890D01*
X48287820Y-53344951D01*
X48098414Y-53248444D01*
X48098413Y-53248443D01*
X48098412Y-53248443D01*
X47896243Y-53182754D01*
X47896241Y-53182753D01*
X47896240Y-53182753D01*
X47734957Y-53157208D01*
X47686287Y-53149500D01*
X47473713Y-53149500D01*
X47425042Y-53157208D01*
X47263760Y-53182753D01*
X47061585Y-53248444D01*
X46872179Y-53344951D01*
X46700213Y-53469890D01*
X46549890Y-53620213D01*
X46424951Y-53792179D01*
X46328444Y-53981585D01*
X46262753Y-54183760D01*
X46229500Y-54393713D01*
X46229500Y-54606286D01*
X46262753Y-54816239D01*
X46328444Y-55018414D01*
X46424951Y-55207820D01*
X46549890Y-55379786D01*
X46700213Y-55530109D01*
X46872179Y-55655048D01*
X46872181Y-55655049D01*
X46872184Y-55655051D01*
X47061588Y-55751557D01*
X47263757Y-55817246D01*
X47473713Y-55850500D01*
X47473714Y-55850500D01*
X47686286Y-55850500D01*
X47686287Y-55850500D01*
X47896243Y-55817246D01*
X48098412Y-55751557D01*
X48287816Y-55655051D01*
X48374138Y-55592335D01*
X48459786Y-55530109D01*
X48459788Y-55530106D01*
X48459792Y-55530104D01*
X48610104Y-55379792D01*
X48610106Y-55379788D01*
X48610109Y-55379786D01*
X48735048Y-55207820D01*
X48735047Y-55207820D01*
X48735051Y-55207816D01*
X48739514Y-55199054D01*
X48787488Y-55148259D01*
X48855308Y-55131463D01*
X48921444Y-55153999D01*
X48960486Y-55199056D01*
X48964951Y-55207820D01*
X49089890Y-55379786D01*
X49240213Y-55530109D01*
X49412179Y-55655048D01*
X49412181Y-55655049D01*
X49412184Y-55655051D01*
X49601588Y-55751557D01*
X49803757Y-55817246D01*
X50013713Y-55850500D01*
X50013714Y-55850500D01*
X50226286Y-55850500D01*
X50226287Y-55850500D01*
X50436243Y-55817246D01*
X50638412Y-55751557D01*
X50827816Y-55655051D01*
X50914138Y-55592335D01*
X50999786Y-55530109D01*
X50999788Y-55530106D01*
X50999792Y-55530104D01*
X51150104Y-55379792D01*
X51150106Y-55379788D01*
X51150109Y-55379786D01*
X51275048Y-55207820D01*
X51275047Y-55207820D01*
X51275051Y-55207816D01*
X51279514Y-55199054D01*
X51327488Y-55148259D01*
X51395308Y-55131463D01*
X51461444Y-55153999D01*
X51500486Y-55199056D01*
X51504951Y-55207820D01*
X51629890Y-55379786D01*
X51780213Y-55530109D01*
X51952179Y-55655048D01*
X51952181Y-55655049D01*
X51952184Y-55655051D01*
X52141588Y-55751557D01*
X52343757Y-55817246D01*
X52553713Y-55850500D01*
X52553714Y-55850500D01*
X52766286Y-55850500D01*
X52766287Y-55850500D01*
X52976243Y-55817246D01*
X53178412Y-55751557D01*
X53367816Y-55655051D01*
X53454138Y-55592335D01*
X53539786Y-55530109D01*
X53539788Y-55530106D01*
X53539792Y-55530104D01*
X53690104Y-55379792D01*
X53690106Y-55379788D01*
X53690109Y-55379786D01*
X53815048Y-55207820D01*
X53815047Y-55207820D01*
X53815051Y-55207816D01*
X53819514Y-55199054D01*
X53867488Y-55148259D01*
X53935308Y-55131463D01*
X54001444Y-55153999D01*
X54040486Y-55199056D01*
X54044951Y-55207820D01*
X54169890Y-55379786D01*
X54320213Y-55530109D01*
X54492179Y-55655048D01*
X54492181Y-55655049D01*
X54492184Y-55655051D01*
X54681588Y-55751557D01*
X54883757Y-55817246D01*
X55093713Y-55850500D01*
X55093714Y-55850500D01*
X55306286Y-55850500D01*
X55306287Y-55850500D01*
X55516243Y-55817246D01*
X55718412Y-55751557D01*
X55907816Y-55655051D01*
X55994138Y-55592335D01*
X56079786Y-55530109D01*
X56079788Y-55530106D01*
X56079792Y-55530104D01*
X56230104Y-55379792D01*
X56230106Y-55379788D01*
X56230109Y-55379786D01*
X56355048Y-55207820D01*
X56355047Y-55207820D01*
X56355051Y-55207816D01*
X56359514Y-55199054D01*
X56407488Y-55148259D01*
X56475308Y-55131463D01*
X56541444Y-55153999D01*
X56580486Y-55199056D01*
X56584951Y-55207820D01*
X56709890Y-55379786D01*
X56860213Y-55530109D01*
X57032179Y-55655048D01*
X57032181Y-55655049D01*
X57032184Y-55655051D01*
X57221588Y-55751557D01*
X57423757Y-55817246D01*
X57633713Y-55850500D01*
X57633714Y-55850500D01*
X57846286Y-55850500D01*
X57846287Y-55850500D01*
X58056243Y-55817246D01*
X58258412Y-55751557D01*
X58447816Y-55655051D01*
X58534138Y-55592335D01*
X58619786Y-55530109D01*
X58619788Y-55530106D01*
X58619792Y-55530104D01*
X58770104Y-55379792D01*
X58770106Y-55379788D01*
X58770109Y-55379786D01*
X58895048Y-55207820D01*
X58895047Y-55207820D01*
X58895051Y-55207816D01*
X58899514Y-55199054D01*
X58947488Y-55148259D01*
X59015308Y-55131463D01*
X59081444Y-55153999D01*
X59120486Y-55199056D01*
X59124951Y-55207820D01*
X59249890Y-55379786D01*
X59400213Y-55530109D01*
X59572179Y-55655048D01*
X59572181Y-55655049D01*
X59572184Y-55655051D01*
X59761588Y-55751557D01*
X59963757Y-55817246D01*
X60173713Y-55850500D01*
X60173714Y-55850500D01*
X60386286Y-55850500D01*
X60386287Y-55850500D01*
X60596243Y-55817246D01*
X60798412Y-55751557D01*
X60987816Y-55655051D01*
X61074138Y-55592335D01*
X61159786Y-55530109D01*
X61159788Y-55530106D01*
X61159792Y-55530104D01*
X61310104Y-55379792D01*
X61310106Y-55379788D01*
X61310109Y-55379786D01*
X61435048Y-55207820D01*
X61435047Y-55207820D01*
X61435051Y-55207816D01*
X61439514Y-55199054D01*
X61487488Y-55148259D01*
X61555308Y-55131463D01*
X61621444Y-55153999D01*
X61660486Y-55199056D01*
X61664951Y-55207820D01*
X61789890Y-55379786D01*
X61940213Y-55530109D01*
X62112179Y-55655048D01*
X62112181Y-55655049D01*
X62112184Y-55655051D01*
X62301588Y-55751557D01*
X62503757Y-55817246D01*
X62713713Y-55850500D01*
X62713714Y-55850500D01*
X62926286Y-55850500D01*
X62926287Y-55850500D01*
X63136243Y-55817246D01*
X63338412Y-55751557D01*
X63527816Y-55655051D01*
X63614138Y-55592335D01*
X63699786Y-55530109D01*
X63699788Y-55530106D01*
X63699792Y-55530104D01*
X63850104Y-55379792D01*
X63850106Y-55379788D01*
X63850109Y-55379786D01*
X63975048Y-55207820D01*
X63975047Y-55207820D01*
X63975051Y-55207816D01*
X63979514Y-55199054D01*
X64027488Y-55148259D01*
X64095308Y-55131463D01*
X64161444Y-55153999D01*
X64200486Y-55199056D01*
X64204951Y-55207820D01*
X64329890Y-55379786D01*
X64480213Y-55530109D01*
X64652179Y-55655048D01*
X64652181Y-55655049D01*
X64652184Y-55655051D01*
X64841588Y-55751557D01*
X65043757Y-55817246D01*
X65253713Y-55850500D01*
X65253714Y-55850500D01*
X65466286Y-55850500D01*
X65466287Y-55850500D01*
X65676243Y-55817246D01*
X65878412Y-55751557D01*
X66067816Y-55655051D01*
X66154138Y-55592335D01*
X66239786Y-55530109D01*
X66239788Y-55530106D01*
X66239792Y-55530104D01*
X66390104Y-55379792D01*
X66390106Y-55379788D01*
X66390109Y-55379786D01*
X66515048Y-55207820D01*
X66515047Y-55207820D01*
X66515051Y-55207816D01*
X66519514Y-55199054D01*
X66567488Y-55148259D01*
X66635308Y-55131463D01*
X66701444Y-55153999D01*
X66740486Y-55199056D01*
X66744951Y-55207820D01*
X66869890Y-55379786D01*
X67020213Y-55530109D01*
X67192179Y-55655048D01*
X67192181Y-55655049D01*
X67192184Y-55655051D01*
X67381588Y-55751557D01*
X67583757Y-55817246D01*
X67793713Y-55850500D01*
X67793714Y-55850500D01*
X68006286Y-55850500D01*
X68006287Y-55850500D01*
X68216243Y-55817246D01*
X68418412Y-55751557D01*
X68607816Y-55655051D01*
X68694138Y-55592335D01*
X68779786Y-55530109D01*
X68779788Y-55530106D01*
X68779792Y-55530104D01*
X68930104Y-55379792D01*
X68930106Y-55379788D01*
X68930109Y-55379786D01*
X69055048Y-55207820D01*
X69055047Y-55207820D01*
X69055051Y-55207816D01*
X69059514Y-55199054D01*
X69107488Y-55148259D01*
X69175308Y-55131463D01*
X69241444Y-55153999D01*
X69280486Y-55199056D01*
X69284951Y-55207820D01*
X69409890Y-55379786D01*
X69560213Y-55530109D01*
X69732179Y-55655048D01*
X69732181Y-55655049D01*
X69732184Y-55655051D01*
X69921588Y-55751557D01*
X70123757Y-55817246D01*
X70333713Y-55850500D01*
X70333714Y-55850500D01*
X70546286Y-55850500D01*
X70546287Y-55850500D01*
X70756243Y-55817246D01*
X70958412Y-55751557D01*
X71147816Y-55655051D01*
X71234138Y-55592335D01*
X71319786Y-55530109D01*
X71319788Y-55530106D01*
X71319792Y-55530104D01*
X71470104Y-55379792D01*
X71470106Y-55379788D01*
X71470109Y-55379786D01*
X71595048Y-55207820D01*
X71595047Y-55207820D01*
X71595051Y-55207816D01*
X71599514Y-55199054D01*
X71647488Y-55148259D01*
X71715308Y-55131463D01*
X71781444Y-55153999D01*
X71820486Y-55199056D01*
X71824951Y-55207820D01*
X71949890Y-55379786D01*
X72100213Y-55530109D01*
X72272179Y-55655048D01*
X72272181Y-55655049D01*
X72272184Y-55655051D01*
X72461588Y-55751557D01*
X72663757Y-55817246D01*
X72873713Y-55850500D01*
X72873714Y-55850500D01*
X73086286Y-55850500D01*
X73086287Y-55850500D01*
X73296243Y-55817246D01*
X73498412Y-55751557D01*
X73687816Y-55655051D01*
X73774138Y-55592335D01*
X73859786Y-55530109D01*
X73859788Y-55530106D01*
X73859792Y-55530104D01*
X74010104Y-55379792D01*
X74010106Y-55379788D01*
X74010109Y-55379786D01*
X74135048Y-55207820D01*
X74135047Y-55207820D01*
X74135051Y-55207816D01*
X74139514Y-55199054D01*
X74187488Y-55148259D01*
X74255308Y-55131463D01*
X74321444Y-55153999D01*
X74360486Y-55199056D01*
X74364951Y-55207820D01*
X74489890Y-55379786D01*
X74640213Y-55530109D01*
X74812179Y-55655048D01*
X74812181Y-55655049D01*
X74812184Y-55655051D01*
X75001588Y-55751557D01*
X75203757Y-55817246D01*
X75413713Y-55850500D01*
X75413714Y-55850500D01*
X75626286Y-55850500D01*
X75626287Y-55850500D01*
X75836243Y-55817246D01*
X76038412Y-55751557D01*
X76227816Y-55655051D01*
X76314138Y-55592335D01*
X76399786Y-55530109D01*
X76399788Y-55530106D01*
X76399792Y-55530104D01*
X76550104Y-55379792D01*
X76550106Y-55379788D01*
X76550109Y-55379786D01*
X76675048Y-55207820D01*
X76675047Y-55207820D01*
X76675051Y-55207816D01*
X76679514Y-55199054D01*
X76727488Y-55148259D01*
X76795308Y-55131463D01*
X76861444Y-55153999D01*
X76900486Y-55199056D01*
X76904951Y-55207820D01*
X77029890Y-55379786D01*
X77180213Y-55530109D01*
X77352179Y-55655048D01*
X77352181Y-55655049D01*
X77352184Y-55655051D01*
X77541588Y-55751557D01*
X77743757Y-55817246D01*
X77953713Y-55850500D01*
X77953714Y-55850500D01*
X78166286Y-55850500D01*
X78166287Y-55850500D01*
X78376243Y-55817246D01*
X78578412Y-55751557D01*
X78767816Y-55655051D01*
X78854138Y-55592335D01*
X78939786Y-55530109D01*
X78939788Y-55530106D01*
X78939792Y-55530104D01*
X79090104Y-55379792D01*
X79090106Y-55379788D01*
X79090109Y-55379786D01*
X79215048Y-55207820D01*
X79215047Y-55207820D01*
X79215051Y-55207816D01*
X79219514Y-55199054D01*
X79267488Y-55148259D01*
X79335308Y-55131463D01*
X79401444Y-55153999D01*
X79440486Y-55199056D01*
X79444951Y-55207820D01*
X79569890Y-55379786D01*
X79720213Y-55530109D01*
X79892179Y-55655048D01*
X79892181Y-55655049D01*
X79892184Y-55655051D01*
X80081588Y-55751557D01*
X80283757Y-55817246D01*
X80493713Y-55850500D01*
X80493714Y-55850500D01*
X80706286Y-55850500D01*
X80706287Y-55850500D01*
X80916243Y-55817246D01*
X81118412Y-55751557D01*
X81307816Y-55655051D01*
X81394138Y-55592335D01*
X81479786Y-55530109D01*
X81479788Y-55530106D01*
X81479792Y-55530104D01*
X81630104Y-55379792D01*
X81630106Y-55379788D01*
X81630109Y-55379786D01*
X81755048Y-55207820D01*
X81755047Y-55207820D01*
X81755051Y-55207816D01*
X81851557Y-55018412D01*
X81917246Y-54816243D01*
X81950500Y-54606287D01*
X81950500Y-54393713D01*
X81917246Y-54183757D01*
X81851557Y-53981588D01*
X81755051Y-53792184D01*
X81755049Y-53792181D01*
X81755048Y-53792179D01*
X81630109Y-53620213D01*
X81479786Y-53469890D01*
X81307820Y-53344951D01*
X81118414Y-53248444D01*
X81118413Y-53248443D01*
X81118412Y-53248443D01*
X80916243Y-53182754D01*
X80916241Y-53182753D01*
X80916240Y-53182753D01*
X80754957Y-53157208D01*
X80706287Y-53149500D01*
X80493713Y-53149500D01*
X80445042Y-53157208D01*
X80283760Y-53182753D01*
X80081585Y-53248444D01*
X79892179Y-53344951D01*
X79720213Y-53469890D01*
X79569890Y-53620213D01*
X79444949Y-53792182D01*
X79440484Y-53800946D01*
X79392509Y-53851742D01*
X79324688Y-53868536D01*
X79258553Y-53845998D01*
X79219516Y-53800946D01*
X79215050Y-53792182D01*
X79090109Y-53620213D01*
X78939786Y-53469890D01*
X78767820Y-53344951D01*
X78578414Y-53248444D01*
X78578413Y-53248443D01*
X78578412Y-53248443D01*
X78376243Y-53182754D01*
X78376241Y-53182753D01*
X78376240Y-53182753D01*
X78214957Y-53157208D01*
X78166287Y-53149500D01*
X77953713Y-53149500D01*
X77905042Y-53157208D01*
X77743760Y-53182753D01*
X77541585Y-53248444D01*
X77352179Y-53344951D01*
X77180213Y-53469890D01*
X77029890Y-53620213D01*
X76904949Y-53792182D01*
X76900484Y-53800946D01*
X76852509Y-53851742D01*
X76784688Y-53868536D01*
X76718553Y-53845998D01*
X76679516Y-53800946D01*
X76675050Y-53792182D01*
X76550109Y-53620213D01*
X76399786Y-53469890D01*
X76227820Y-53344951D01*
X76038414Y-53248444D01*
X76038413Y-53248443D01*
X76038412Y-53248443D01*
X75836243Y-53182754D01*
X75836241Y-53182753D01*
X75836240Y-53182753D01*
X75674957Y-53157208D01*
X75626287Y-53149500D01*
X75413713Y-53149500D01*
X75365042Y-53157208D01*
X75203760Y-53182753D01*
X75001585Y-53248444D01*
X74812179Y-53344951D01*
X74640213Y-53469890D01*
X74489890Y-53620213D01*
X74364949Y-53792182D01*
X74360484Y-53800946D01*
X74312509Y-53851742D01*
X74244688Y-53868536D01*
X74178553Y-53845998D01*
X74139516Y-53800946D01*
X74135050Y-53792182D01*
X74010109Y-53620213D01*
X73859786Y-53469890D01*
X73687820Y-53344951D01*
X73498414Y-53248444D01*
X73498413Y-53248443D01*
X73498412Y-53248443D01*
X73296243Y-53182754D01*
X73296241Y-53182753D01*
X73296240Y-53182753D01*
X73134957Y-53157208D01*
X73086287Y-53149500D01*
X72873713Y-53149500D01*
X72825042Y-53157208D01*
X72663760Y-53182753D01*
X72461585Y-53248444D01*
X72272179Y-53344951D01*
X72100213Y-53469890D01*
X71949890Y-53620213D01*
X71824949Y-53792182D01*
X71820484Y-53800946D01*
X71772509Y-53851742D01*
X71704688Y-53868536D01*
X71638553Y-53845998D01*
X71599516Y-53800946D01*
X71595050Y-53792182D01*
X71470109Y-53620213D01*
X71319786Y-53469890D01*
X71147820Y-53344951D01*
X70958414Y-53248444D01*
X70958413Y-53248443D01*
X70958412Y-53248443D01*
X70756243Y-53182754D01*
X70756241Y-53182753D01*
X70756240Y-53182753D01*
X70594957Y-53157208D01*
X70546287Y-53149500D01*
X70333713Y-53149500D01*
X70285042Y-53157208D01*
X70123760Y-53182753D01*
X69921585Y-53248444D01*
X69732179Y-53344951D01*
X69560213Y-53469890D01*
X69409890Y-53620213D01*
X69284949Y-53792182D01*
X69280484Y-53800946D01*
X69232509Y-53851742D01*
X69164688Y-53868536D01*
X69098553Y-53845998D01*
X69059516Y-53800946D01*
X69055050Y-53792182D01*
X68930109Y-53620213D01*
X68779786Y-53469890D01*
X68607820Y-53344951D01*
X68418414Y-53248444D01*
X68418413Y-53248443D01*
X68418412Y-53248443D01*
X68216243Y-53182754D01*
X68216241Y-53182753D01*
X68216240Y-53182753D01*
X68054957Y-53157208D01*
X68006287Y-53149500D01*
X67793713Y-53149500D01*
X67745042Y-53157208D01*
X67583760Y-53182753D01*
X67381585Y-53248444D01*
X67192179Y-53344951D01*
X67020213Y-53469890D01*
X66869890Y-53620213D01*
X66744949Y-53792182D01*
X66740484Y-53800946D01*
X66692509Y-53851742D01*
X66624688Y-53868536D01*
X66558553Y-53845998D01*
X66519516Y-53800946D01*
X66515050Y-53792182D01*
X66390109Y-53620213D01*
X66239786Y-53469890D01*
X66067820Y-53344951D01*
X65878414Y-53248444D01*
X65878413Y-53248443D01*
X65878412Y-53248443D01*
X65676243Y-53182754D01*
X65676241Y-53182753D01*
X65676240Y-53182753D01*
X65514957Y-53157208D01*
X65466287Y-53149500D01*
X65253713Y-53149500D01*
X65205042Y-53157208D01*
X65043760Y-53182753D01*
X64841585Y-53248444D01*
X64652179Y-53344951D01*
X64480213Y-53469890D01*
X64329890Y-53620213D01*
X64204949Y-53792182D01*
X64200484Y-53800946D01*
X64152509Y-53851742D01*
X64084688Y-53868536D01*
X64018553Y-53845998D01*
X63979516Y-53800946D01*
X63975050Y-53792182D01*
X63850109Y-53620213D01*
X63699786Y-53469890D01*
X63527820Y-53344951D01*
X63338414Y-53248444D01*
X63338413Y-53248443D01*
X63338412Y-53248443D01*
X63136243Y-53182754D01*
X63136241Y-53182753D01*
X63136240Y-53182753D01*
X62974957Y-53157208D01*
X62926287Y-53149500D01*
X62713713Y-53149500D01*
X62685006Y-53154046D01*
X62503757Y-53182753D01*
X62461473Y-53196492D01*
X62391632Y-53198486D01*
X62335476Y-53166241D01*
X56402590Y-47233355D01*
X56402588Y-47233352D01*
X56283717Y-47114481D01*
X56283709Y-47114475D01*
X56160143Y-47043135D01*
X56160140Y-47043134D01*
X56160131Y-47043129D01*
X56146785Y-47035423D01*
X55994057Y-46994499D01*
X55835943Y-46994499D01*
X55828347Y-46994499D01*
X55828331Y-46994500D01*
X49820808Y-46994500D01*
X49753769Y-46974815D01*
X49733126Y-46958180D01*
X49701870Y-46926923D01*
X49701862Y-46926917D01*
X49560396Y-46843255D01*
X49560393Y-46843254D01*
X49402573Y-46797402D01*
X49402567Y-46797401D01*
X49365701Y-46794500D01*
X49365694Y-46794500D01*
X47584306Y-46794500D01*
X47584298Y-46794500D01*
X47547432Y-46797401D01*
X47547426Y-46797402D01*
X47389606Y-46843254D01*
X47389603Y-46843255D01*
X47248137Y-46926917D01*
X47248129Y-46926923D01*
X47131923Y-47043129D01*
X47131919Y-47043135D01*
X47048255Y-47184603D01*
X47048254Y-47184606D01*
X47002402Y-47342426D01*
X47002401Y-47342432D01*
X46999500Y-47379298D01*
X46999500Y-47810701D01*
X47002401Y-47847567D01*
X47002402Y-47847573D01*
X47048254Y-48005393D01*
X47048255Y-48005396D01*
X47131917Y-48146862D01*
X47131923Y-48146870D01*
X47248129Y-48263076D01*
X47248133Y-48263079D01*
X47248135Y-48263081D01*
X47389602Y-48346744D01*
X47431224Y-48358836D01*
X47547426Y-48392597D01*
X47547429Y-48392597D01*
X47547431Y-48392598D01*
X47584306Y-48395500D01*
X47584314Y-48395500D01*
X49365686Y-48395500D01*
X49365694Y-48395500D01*
X49402569Y-48392598D01*
X49402571Y-48392597D01*
X49402573Y-48392597D01*
X49444191Y-48380505D01*
X49560398Y-48346744D01*
X49701865Y-48263081D01*
X49733126Y-48231820D01*
X49794448Y-48198334D01*
X49820808Y-48195500D01*
X55614903Y-48195500D01*
X55681942Y-48215185D01*
X55702584Y-48231819D01*
X60408583Y-52937819D01*
X60442068Y-52999142D01*
X60437084Y-53068834D01*
X60395212Y-53124767D01*
X60329748Y-53149184D01*
X60320902Y-53149500D01*
X60173713Y-53149500D01*
X60145006Y-53154046D01*
X59963757Y-53182753D01*
X59921473Y-53196492D01*
X59851632Y-53198486D01*
X59795476Y-53166241D01*
X57672590Y-51043355D01*
X57672588Y-51043352D01*
X57553717Y-50924481D01*
X57553709Y-50924475D01*
X57430143Y-50853135D01*
X57430140Y-50853134D01*
X57416785Y-50845423D01*
X57379752Y-50835500D01*
X57264057Y-50804499D01*
X57105943Y-50804499D01*
X57098347Y-50804499D01*
X57098331Y-50804500D01*
X49965907Y-50804500D01*
X49898868Y-50784815D01*
X49853113Y-50732011D01*
X49843169Y-50662853D01*
X49859175Y-50617380D01*
X49880973Y-50580518D01*
X49901744Y-50545398D01*
X49947598Y-50387569D01*
X49950500Y-50350694D01*
X49950500Y-49919306D01*
X49947598Y-49882431D01*
X49942907Y-49866286D01*
X49901745Y-49724606D01*
X49901744Y-49724603D01*
X49901744Y-49724602D01*
X49818081Y-49583135D01*
X49818079Y-49583133D01*
X49818076Y-49583129D01*
X49701870Y-49466923D01*
X49701862Y-49466917D01*
X49560396Y-49383255D01*
X49560393Y-49383254D01*
X49402573Y-49337402D01*
X49402567Y-49337401D01*
X49365701Y-49334500D01*
X49365694Y-49334500D01*
X47584306Y-49334500D01*
X47584298Y-49334500D01*
X47547432Y-49337401D01*
X47547426Y-49337402D01*
X47389606Y-49383254D01*
X47389603Y-49383255D01*
X47248137Y-49466917D01*
X47248129Y-49466923D01*
X47131919Y-49583133D01*
X47129309Y-49586499D01*
X47126591Y-49588461D01*
X47126464Y-49588588D01*
X47125042Y-49591703D01*
X47098368Y-49608844D01*
X47072667Y-49627407D01*
X47068325Y-49628151D01*
X47066264Y-49629477D01*
X47031329Y-49634500D01*
X46851669Y-49634500D01*
X46851653Y-49634499D01*
X46844057Y-49634499D01*
X46685943Y-49634499D01*
X46578587Y-49663265D01*
X46533210Y-49675424D01*
X46533209Y-49675425D01*
X46483096Y-49704359D01*
X46483095Y-49704360D01*
X46448035Y-49724602D01*
X46396285Y-49754479D01*
X46396282Y-49754481D01*
X46284478Y-49866286D01*
X45140747Y-51010016D01*
X45120034Y-51021326D01*
X45101827Y-51036345D01*
X45089935Y-51037761D01*
X45079424Y-51043501D01*
X45055883Y-51041817D01*
X45032447Y-51044609D01*
X45021677Y-51039371D01*
X45009732Y-51038517D01*
X44990838Y-51024373D01*
X44969614Y-51014051D01*
X44958009Y-50999796D01*
X44953799Y-50996645D01*
X44947155Y-50986825D01*
X44946797Y-50986237D01*
X44868081Y-50853135D01*
X44862120Y-50847174D01*
X44854397Y-50834490D01*
X44849061Y-50814539D01*
X44839155Y-50796421D01*
X44840216Y-50781471D01*
X44836344Y-50766993D01*
X44842641Y-50747324D01*
X44844104Y-50726726D01*
X44854331Y-50710812D01*
X44857649Y-50700450D01*
X44864761Y-50694583D01*
X44864940Y-50694304D01*
X44863298Y-50693031D01*
X44868075Y-50686870D01*
X44868081Y-50686865D01*
X44951744Y-50545398D01*
X44997598Y-50387569D01*
X45000500Y-50350694D01*
X45000500Y-49919306D01*
X44997598Y-49882431D01*
X44992907Y-49866286D01*
X44951745Y-49724606D01*
X44951744Y-49724603D01*
X44951744Y-49724602D01*
X44868081Y-49583135D01*
X44868078Y-49583132D01*
X44863298Y-49576969D01*
X44865750Y-49575066D01*
X44839155Y-49526421D01*
X44844104Y-49456726D01*
X44864940Y-49424304D01*
X44863298Y-49423031D01*
X44868075Y-49416870D01*
X44868081Y-49416865D01*
X44951744Y-49275398D01*
X44997598Y-49117569D01*
X45000500Y-49080694D01*
X45000500Y-48649306D01*
X44997598Y-48612431D01*
X44951744Y-48454602D01*
X44868081Y-48313135D01*
X44868078Y-48313132D01*
X44863298Y-48306969D01*
X44865750Y-48305066D01*
X44839155Y-48256421D01*
X44844104Y-48186726D01*
X44864940Y-48154304D01*
X44863298Y-48153031D01*
X44868075Y-48146870D01*
X44868081Y-48146865D01*
X44951744Y-48005398D01*
X44997598Y-47847569D01*
X45000500Y-47810694D01*
X45000500Y-47379306D01*
X44997598Y-47342431D01*
X44976036Y-47268216D01*
X44951745Y-47184606D01*
X44951744Y-47184603D01*
X44951744Y-47184602D01*
X44868081Y-47043135D01*
X44868080Y-47043134D01*
X44868076Y-47043129D01*
X44751870Y-46926923D01*
X44751867Y-46926921D01*
X44751865Y-46926919D01*
X44695712Y-46893710D01*
X44661378Y-46873405D01*
X44613695Y-46822335D01*
X44600500Y-46766673D01*
X44600500Y-45229601D01*
X44620185Y-45162562D01*
X44668206Y-45119116D01*
X44681610Y-45112287D01*
X44847219Y-44991966D01*
X44991966Y-44847219D01*
X44991968Y-44847215D01*
X44991971Y-44847213D01*
X45089729Y-44712658D01*
X45112287Y-44681610D01*
X45205220Y-44499219D01*
X45268477Y-44304534D01*
X45300500Y-44102352D01*
X45300500Y-43897648D01*
X45281666Y-43778734D01*
X45268477Y-43695465D01*
X45205218Y-43500776D01*
X45150500Y-43393387D01*
X45112287Y-43318390D01*
X45104556Y-43307749D01*
X44991971Y-43152786D01*
X44847213Y-43008028D01*
X44681613Y-42887715D01*
X44681612Y-42887714D01*
X44681610Y-42887713D01*
X44624653Y-42858691D01*
X44499223Y-42794781D01*
X44304534Y-42731522D01*
X44129995Y-42703878D01*
X44102352Y-42699500D01*
X43897648Y-42699500D01*
X43873329Y-42703351D01*
X43695465Y-42731522D01*
X43500776Y-42794781D01*
X43318386Y-42887715D01*
X43152786Y-43008028D01*
X43152782Y-43008032D01*
X43061181Y-43099634D01*
X42999858Y-43133119D01*
X42930166Y-43128135D01*
X42874233Y-43086263D01*
X42849816Y-43020799D01*
X42849500Y-43011953D01*
X42849500Y-41671096D01*
X42869185Y-41604057D01*
X42885815Y-41583419D01*
X43317075Y-41152158D01*
X43378398Y-41118674D01*
X43443074Y-41121909D01*
X43612730Y-41177033D01*
X43625215Y-41181090D01*
X43874038Y-41220500D01*
X43874039Y-41220500D01*
X44125961Y-41220500D01*
X44125962Y-41220500D01*
X44374785Y-41181090D01*
X44614379Y-41103241D01*
X44838845Y-40988870D01*
X45042656Y-40840793D01*
X45220793Y-40662656D01*
X45368870Y-40458845D01*
X45483241Y-40234379D01*
X45561090Y-39994785D01*
X45600500Y-39745962D01*
X45600500Y-39494038D01*
X45561090Y-39245215D01*
X45483241Y-39005621D01*
X45483239Y-39005618D01*
X45483239Y-39005616D01*
X45441747Y-38924184D01*
X45368870Y-38781155D01*
X45349952Y-38755117D01*
X45220798Y-38577350D01*
X45220794Y-38577345D01*
X45081130Y-38437681D01*
X45047645Y-38376358D01*
X45052629Y-38306666D01*
X45081130Y-38262319D01*
X45220793Y-38122656D01*
X45368870Y-37918845D01*
X45483241Y-37694379D01*
X45561090Y-37454785D01*
X45600500Y-37205962D01*
X45600500Y-36954038D01*
X45561090Y-36705215D01*
X45483241Y-36465621D01*
X45483239Y-36465618D01*
X45483239Y-36465616D01*
X45441747Y-36384184D01*
X45368870Y-36241155D01*
X45349952Y-36215117D01*
X45220798Y-36037350D01*
X45220794Y-36037345D01*
X45081130Y-35897681D01*
X45047645Y-35836358D01*
X45052629Y-35766666D01*
X45081130Y-35722319D01*
X45220793Y-35582656D01*
X45368870Y-35378845D01*
X45455815Y-35208204D01*
X45503789Y-35157409D01*
X45566300Y-35140500D01*
X48239903Y-35140500D01*
X48306942Y-35160185D01*
X48327584Y-35176819D01*
X57863423Y-44712658D01*
X57896908Y-44773981D01*
X57891924Y-44843673D01*
X57887462Y-44854140D01*
X57778737Y-45079909D01*
X57778734Y-45079917D01*
X57689687Y-45334397D01*
X57689684Y-45334405D01*
X57629688Y-45597268D01*
X57629686Y-45597280D01*
X57599500Y-45865186D01*
X57599500Y-46134813D01*
X57629686Y-46402719D01*
X57629688Y-46402731D01*
X57689684Y-46665594D01*
X57689687Y-46665602D01*
X57778734Y-46920082D01*
X57895714Y-47162994D01*
X57909291Y-47184602D01*
X58039162Y-47391289D01*
X58207266Y-47602085D01*
X58397915Y-47792734D01*
X58608711Y-47960838D01*
X58837003Y-48104284D01*
X59079921Y-48221267D01*
X59180386Y-48256421D01*
X59334397Y-48310312D01*
X59334405Y-48310315D01*
X59334408Y-48310315D01*
X59334409Y-48310316D01*
X59597268Y-48370312D01*
X59865187Y-48400499D01*
X59865188Y-48400500D01*
X59865191Y-48400500D01*
X60134812Y-48400500D01*
X60134812Y-48400499D01*
X60402732Y-48370312D01*
X60665591Y-48310316D01*
X60920079Y-48221267D01*
X61162997Y-48104284D01*
X61391289Y-47960838D01*
X61602085Y-47792734D01*
X61792734Y-47602085D01*
X61960838Y-47391289D01*
X62104284Y-47162997D01*
X62221267Y-46920079D01*
X62310316Y-46665591D01*
X62370312Y-46402732D01*
X62400500Y-46134809D01*
X62400500Y-45865191D01*
X62370312Y-45597268D01*
X62310316Y-45334409D01*
X62221267Y-45079921D01*
X62104284Y-44837003D01*
X61960838Y-44608711D01*
X61792734Y-44397915D01*
X61602085Y-44207266D01*
X61391289Y-44039162D01*
X61219527Y-43931236D01*
X61162994Y-43895714D01*
X60920082Y-43778734D01*
X60665602Y-43689687D01*
X60665594Y-43689684D01*
X60468446Y-43644687D01*
X60402732Y-43629688D01*
X60402728Y-43629687D01*
X60402719Y-43629686D01*
X60134813Y-43599500D01*
X60134809Y-43599500D01*
X59865191Y-43599500D01*
X59865186Y-43599500D01*
X59597280Y-43629686D01*
X59597268Y-43629688D01*
X59334405Y-43689684D01*
X59334397Y-43689687D01*
X59079917Y-43778734D01*
X59079909Y-43778737D01*
X58854140Y-43887462D01*
X58785199Y-43898814D01*
X58721065Y-43871092D01*
X58712658Y-43863423D01*
X49027590Y-34178355D01*
X49027588Y-34178352D01*
X48908717Y-34059481D01*
X48908716Y-34059480D01*
X48821904Y-34009360D01*
X48821904Y-34009359D01*
X48821900Y-34009358D01*
X48771785Y-33980423D01*
X48619057Y-33939499D01*
X48460943Y-33939499D01*
X48453347Y-33939499D01*
X48453331Y-33939500D01*
X45566300Y-33939500D01*
X45499261Y-33919815D01*
X45455815Y-33871795D01*
X45368870Y-33701155D01*
X45301233Y-33608060D01*
X45277754Y-33542257D01*
X45293579Y-33474203D01*
X45313871Y-33447495D01*
X45318650Y-33442715D01*
X45318656Y-33442712D01*
X45442712Y-33318656D01*
X45534814Y-33169335D01*
X45589999Y-33002798D01*
X45600500Y-32900010D01*
X45600500Y-32724500D01*
X45620185Y-32657461D01*
X45672989Y-32611706D01*
X45724500Y-32600500D01*
X57578925Y-32600500D01*
X57645964Y-32620185D01*
X57691719Y-32672989D01*
X57695966Y-32683545D01*
X57778734Y-32920082D01*
X57895714Y-33162994D01*
X57899698Y-33169335D01*
X58039162Y-33391289D01*
X58207266Y-33602085D01*
X58397915Y-33792734D01*
X58608711Y-33960838D01*
X58837003Y-34104284D01*
X59079921Y-34221267D01*
X59271049Y-34288145D01*
X59334397Y-34310312D01*
X59334405Y-34310315D01*
X59334408Y-34310315D01*
X59334409Y-34310316D01*
X59597268Y-34370312D01*
X59865187Y-34400499D01*
X59865188Y-34400500D01*
X59865191Y-34400500D01*
X60134812Y-34400500D01*
X60134812Y-34400499D01*
X60402732Y-34370312D01*
X60665591Y-34310316D01*
X60920079Y-34221267D01*
X61162997Y-34104284D01*
X61391289Y-33960838D01*
X61602085Y-33792734D01*
X61792734Y-33602085D01*
X61960838Y-33391289D01*
X62104284Y-33162997D01*
X62221267Y-32920079D01*
X62310316Y-32665591D01*
X62370312Y-32402732D01*
X62400500Y-32134809D01*
X62400500Y-31865191D01*
X62370312Y-31597268D01*
X62310316Y-31334409D01*
X62307727Y-31327011D01*
X62228289Y-31099990D01*
X62221267Y-31079921D01*
X62104284Y-30837003D01*
X61960838Y-30608711D01*
X61792734Y-30397915D01*
X61602085Y-30207266D01*
X61391289Y-30039162D01*
X61162997Y-29895716D01*
X61162994Y-29895714D01*
X60920082Y-29778734D01*
X60665602Y-29689687D01*
X60665594Y-29689684D01*
X60468446Y-29644687D01*
X60402732Y-29629688D01*
X60402728Y-29629687D01*
X60402719Y-29629686D01*
X60134813Y-29599500D01*
X60134809Y-29599500D01*
X59865191Y-29599500D01*
X59865186Y-29599500D01*
X59597280Y-29629686D01*
X59597268Y-29629688D01*
X59334405Y-29689684D01*
X59334397Y-29689687D01*
X59079917Y-29778734D01*
X58837005Y-29895714D01*
X58608712Y-30039161D01*
X58397915Y-30207265D01*
X58207265Y-30397915D01*
X58039161Y-30608712D01*
X57895714Y-30837005D01*
X57778734Y-31079917D01*
X57695966Y-31316455D01*
X57655245Y-31373231D01*
X57590292Y-31398978D01*
X57578925Y-31399500D01*
X45724500Y-31399500D01*
X45657461Y-31379815D01*
X45611706Y-31327011D01*
X45600500Y-31275500D01*
X45600500Y-31099995D01*
X45600499Y-31099982D01*
X45589999Y-30997203D01*
X45589999Y-30997202D01*
X45534814Y-30830665D01*
X45442712Y-30681344D01*
X45318656Y-30557288D01*
X45169335Y-30465186D01*
X45002798Y-30410001D01*
X45002796Y-30410000D01*
X44900017Y-30399500D01*
X44900010Y-30399500D01*
X43099990Y-30399500D01*
X43099982Y-30399500D01*
X42997203Y-30410000D01*
X42997202Y-30410001D01*
X42914669Y-30437349D01*
X42830667Y-30465185D01*
X42830662Y-30465187D01*
X42681342Y-30557289D01*
X42557289Y-30681342D01*
X42465187Y-30830662D01*
X42465185Y-30830667D01*
X42463085Y-30837005D01*
X42410001Y-30997202D01*
X42410001Y-30997203D01*
X42410000Y-30997203D01*
X42399500Y-31099982D01*
X42399500Y-32900017D01*
X42410000Y-33002796D01*
X42465185Y-33169332D01*
X42465187Y-33169337D01*
X42557289Y-33318657D01*
X42686128Y-33447496D01*
X42719613Y-33508819D01*
X42714629Y-33578511D01*
X42698767Y-33608058D01*
X42698765Y-33608063D01*
X42631128Y-33701158D01*
X42516760Y-33925616D01*
X42438910Y-34165214D01*
X42399500Y-34414038D01*
X42399500Y-34665961D01*
X42438910Y-34914785D01*
X42516760Y-35154383D01*
X42631132Y-35378848D01*
X42779201Y-35582649D01*
X42779205Y-35582654D01*
X42918870Y-35722319D01*
X42952355Y-35783642D01*
X42947371Y-35853334D01*
X42918870Y-35897681D01*
X42779205Y-36037345D01*
X42779201Y-36037350D01*
X42631132Y-36241151D01*
X42516760Y-36465616D01*
X42438910Y-36705214D01*
X42399500Y-36954038D01*
X42399500Y-37205961D01*
X42438910Y-37454786D01*
X42438910Y-37454789D01*
X42498090Y-37636924D01*
X42500085Y-37706765D01*
X42467840Y-37762923D01*
X40531458Y-39699304D01*
X40531459Y-39699305D01*
X40531286Y-39699478D01*
X40531284Y-39699480D01*
X40419480Y-39811284D01*
X40418873Y-39812335D01*
X40412354Y-39818880D01*
X40388451Y-39831992D01*
X40366431Y-39848067D01*
X40358267Y-39848552D01*
X40351097Y-39852486D01*
X40323898Y-39850594D01*
X40296684Y-39852212D01*
X40289553Y-39848206D01*
X40281395Y-39847639D01*
X40259537Y-39831343D01*
X40235769Y-39817991D01*
X40231936Y-39810766D01*
X40225379Y-39805878D01*
X40215801Y-39780352D01*
X40203025Y-39756269D01*
X40201639Y-39742609D01*
X40200834Y-39740462D01*
X40201233Y-39738606D01*
X40200500Y-39731372D01*
X40200500Y-28424500D01*
X40220185Y-28357461D01*
X40272989Y-28311706D01*
X40324500Y-28300500D01*
X84075500Y-28300500D01*
X84142539Y-28320185D01*
G37*
%TD.AperFunction*%
%TD*%
M02*
