%TF.GenerationSoftware,KiCad,Pcbnew,9.0.2-9.0.2-0~ubuntu24.04.1*%
%TF.CreationDate,2025-06-12T16:41:05+02:00*%
%TF.ProjectId,Esp32shield,45737033-3273-4686-9965-6c642e6b6963,rev?*%
%TF.SameCoordinates,Original*%
%TF.FileFunction,Soldermask,Top*%
%TF.FilePolarity,Negative*%
%FSLAX46Y46*%
G04 Gerber Fmt 4.6, Leading zero omitted, Abs format (unit mm)*
G04 Created by KiCad (PCBNEW 9.0.2-9.0.2-0~ubuntu24.04.1) date 2025-06-12 16:41:05*
%MOMM*%
%LPD*%
G01*
G04 APERTURE LIST*
G04 Aperture macros list*
%AMRoundRect*
0 Rectangle with rounded corners*
0 $1 Rounding radius*
0 $2 $3 $4 $5 $6 $7 $8 $9 X,Y pos of 4 corners*
0 Add a 4 corners polygon primitive as box body*
4,1,4,$2,$3,$4,$5,$6,$7,$8,$9,$2,$3,0*
0 Add four circle primitives for the rounded corners*
1,1,$1+$1,$2,$3*
1,1,$1+$1,$4,$5*
1,1,$1+$1,$6,$7*
1,1,$1+$1,$8,$9*
0 Add four rect primitives between the rounded corners*
20,1,$1+$1,$2,$3,$4,$5,0*
20,1,$1+$1,$4,$5,$6,$7,0*
20,1,$1+$1,$6,$7,$8,$9,0*
20,1,$1+$1,$8,$9,$2,$3,0*%
G04 Aperture macros list end*
%ADD10R,1.700000X1.700000*%
%ADD11O,1.700000X1.700000*%
%ADD12RoundRect,0.249999X-0.850001X0.850001X-0.850001X-0.850001X0.850001X-0.850001X0.850001X0.850001X0*%
%ADD13C,2.200000*%
%ADD14C,3.800000*%
%ADD15C,1.600000*%
G04 APERTURE END LIST*
D10*
%TO.C,J1*%
X42500000Y-54500000D03*
D11*
X45040000Y-54500000D03*
X47580000Y-54500000D03*
X50120000Y-54500000D03*
X52660000Y-54500000D03*
X55200000Y-54500000D03*
X57740000Y-54500000D03*
X60280000Y-54500000D03*
X62820000Y-54500000D03*
X65360000Y-54500000D03*
X67900000Y-54500000D03*
X70440000Y-54500000D03*
X72980000Y-54500000D03*
X75520000Y-54500000D03*
X78060000Y-54500000D03*
X80600000Y-54500000D03*
%TD*%
D10*
%TO.C,J2*%
X42500000Y-84500000D03*
D11*
X45040000Y-84500000D03*
X47580000Y-84500000D03*
X50120000Y-84500000D03*
X52660000Y-84500000D03*
X55200000Y-84500000D03*
X57740000Y-84500000D03*
X60280000Y-84500000D03*
X62820000Y-84500000D03*
X65360000Y-84500000D03*
X67900000Y-84500000D03*
X70440000Y-84500000D03*
X72980000Y-84500000D03*
X75520000Y-84500000D03*
X78060000Y-84500000D03*
X80600000Y-84500000D03*
%TD*%
D12*
%TO.C,J9*%
X44000000Y-32000000D03*
D13*
X44000000Y-34540000D03*
X44000000Y-37080000D03*
X44000000Y-39620000D03*
%TD*%
D14*
%TO.C,J6*%
X79500000Y-32000000D03*
%TD*%
%TO.C,J3*%
X60000000Y-46000000D03*
%TD*%
D15*
%TO.C,R1*%
X44000000Y-44000000D03*
X51620000Y-44000000D03*
%TD*%
D14*
%TO.C,J4*%
X60000000Y-32000000D03*
%TD*%
%TO.C,J5*%
X79500000Y-46000000D03*
%TD*%
M02*
